<?xml version="1.0" encoding="utf-8"?>
<!-- Generator: Adobe Illustrator 23.0.3, SVG Export Plug-In . SVG Version: 6.00 Build 0)  -->
<svg version="1.1"
	 id="svg26" inkscape:version="0.92.3 (2405546, 2018-03-11)" sodipodi:docname="apple_objectivec-ar21.svg" xmlns:cc="http://creativecommons.org/ns#" xmlns:dc="http://purl.org/dc/elements/1.1/" xmlns:inkscape="http://www.inkscape.org/namespaces/inkscape" xmlns:rdf="http://www.w3.org/1999/02/22-rdf-syntax-ns#" xmlns:sodipodi="http://sodipodi.sourceforge.net/DTD/sodipodi-0.dtd" xmlns:svg="http://www.w3.org/2000/svg"
	 xmlns="http://www.w3.org/2000/svg" xmlns:xlink="http://www.w3.org/1999/xlink" x="0px" y="0px" viewBox="30 0 60 60"
	 style="enable-background:new 0 0 120 60;" xml:space="preserve">
<style type="text/css">
	.st0{fill:#F1592A;}
</style>
<g transform="matrix(0.65762897,0,0,0.65762897,34.875476,4.8752901)">
	<g id="Layer_1-2">
		<path id="path8" inkscape:connector-curvature="0" class="st0" d="M38.1,76.4c-20.5,0-37.9-17.3-38.1-38
			c-0.1-10.1,3.9-19.7,11-26.9C18.2,4.2,28,0.1,38.2,0l0,0C48.3,0,57.9,4,65,11.1c7.2,7,11.3,16.6,11.4,26.7
			c0.1,21.1-16.9,38.3-38,38.6H38.1z M38.2,2c-9.7,0.1-19,4-25.8,10.9C5.7,19.7,1.9,28.9,2,38.4c0.1,19.6,16.6,36,36.1,36h0.3
			c20-0.2,36.1-16.5,36.1-36.5c-0.1-9.5-4-18.7-10.8-25.3C56.9,5.8,47.7,2,38.2,2z"/>
		<path id="path10" inkscape:connector-curvature="0" class="st0" d="M8.6,49.4V27.1H14v2h-2.9v18.4H14v2L8.6,49.4z"/>
		<path id="path12" inkscape:connector-curvature="0" class="st0" d="M27,38c0,4.1-2.5,6.4-5.8,6.4s-5.6-2.6-5.6-6.2
			c0-3.7,2.3-6.4,5.8-6.4S27,34.6,27,38z M17.9,38.2c0,2.5,1.2,4.4,3.4,4.4s3.4-2,3.4-4.5c0-2.3-1.1-4.5-3.4-4.5
			S17.9,35.7,17.9,38.2L17.9,38.2z"/>
		<path id="path14" inkscape:connector-curvature="0" class="st0" d="M28.9,32.3c1.1-0.2,2.1-0.3,3.2-0.3c1.2-0.1,2.4,0.2,3.5,0.8
			c0.8,0.5,1.3,1.3,1.3,2.3c0,1.2-0.8,2.3-2,2.6l0,0c1.4,0.3,2.5,1.5,2.5,3c0,1-0.4,1.9-1.2,2.5c-0.9,0.8-2.3,1.1-4.5,1.1
			c-0.9,0-1.8,0-2.7-0.2L28.9,32.3z M31.1,37.1h1.1c1.5,0,2.4-0.7,2.4-1.8s-0.9-1.7-2.3-1.7c-0.4,0-0.8,0-1.3,0.1L31.1,37.1z
			 M31.1,42.6c0.4,0,0.8,0.1,1.2,0c1.4,0,2.7-0.5,2.7-2s-1.2-2-2.8-2h-1.1V42.6z"/>
		<path id="path16" inkscape:connector-curvature="0" class="st0" d="M41.7,32.1h2.2V40c0,3.3-1.6,4.5-4,4.5c-0.6,0-1.3-0.1-1.9-0.3
			l0.3-1.8c0.4,0.1,0.9,0.2,1.4,0.2c1.3,0,2-0.6,2-2.7L41.7,32.1z"/>
		<path id="path18" inkscape:connector-curvature="0" class="st0" d="M50.2,38.7v1.5h-4.6v-1.5H50.2z"/>
		<path id="path20" inkscape:connector-curvature="0" class="st0" d="M60.9,43.9c-1,0.4-2.1,0.6-3.1,0.5c-3.8,0-6.2-2.4-6.2-6.1
			c-0.2-3.4,2.4-6.2,5.8-6.4c0.2,0,0.5,0,0.7,0c1,0,2.1,0.1,3,0.5l-0.5,1.8c-0.8-0.3-1.6-0.5-2.4-0.5c-2.5,0-4.3,1.5-4.3,4.5
			c0,2.7,1.6,4.4,4.2,4.4c0.8,0,1.6-0.1,2.4-0.5L60.9,43.9z"/>
		<path id="path22" inkscape:connector-curvature="0" class="st0" d="M67.8,27v22.4h-5.4v-2h2.9V29h-2.9v-2H67.8z"/>
	</g>
</g>
</svg>
