<?xml version="1.0" encoding="utf-8"?>
<!-- Generator: Adobe Illustrator 23.0.3, SVG Export Plug-In . SVG Version: 6.00 Build 0)  -->
<svg version="1.1" id="Layer_1" xmlns="http://www.w3.org/2000/svg" xmlns:xlink="http://www.w3.org/1999/xlink" x="0px" y="0px"
	 viewBox="0 0 264 280" style="enable-background:new 0 0 264 280;" xml:space="preserve">
<style type="text/css">
	.st0{fill-rule:evenodd;clip-rule:evenodd;fill:#FFFFFF;}
	.st1{filter:url(#Adobe_OpacityMaskFilter);}
	.st2{mask:url(#mask-2_1_);}
	.st3{filter:url(#Adobe_OpacityMaskFilter_1_);}
	.st4{mask:url(#mask-4_1_);}
	.st5{fill-rule:evenodd;clip-rule:evenodd;fill:#D0C6AC;}
	.st6{filter:url(#Adobe_OpacityMaskFilter_2_);}
	.st7{mask:url(#mask-6_1_);}
	.st8{fill-rule:evenodd;clip-rule:evenodd;fill:#EDB98A;}
	.st9{filter:url(#Adobe_OpacityMaskFilter_3_);}
	.st10{mask:url(#mask-6_2_);fill-rule:evenodd;clip-rule:evenodd;fill-opacity:0.1;}
	.st11{fill-rule:evenodd;clip-rule:evenodd;fill:#B7C1DB;}
	.st12{filter:url(#Adobe_OpacityMaskFilter_4_);}
	.st13{mask:url(#react-mask-423_1_);}
	.st14{fill-rule:evenodd;clip-rule:evenodd;fill:#FFAFB9;}
	.st15{filter:url(#Adobe_OpacityMaskFilter_5_);}
	.st16{mask:url(#react-mask-423_2_);fill-rule:evenodd;clip-rule:evenodd;fill:#F4F4F4;}
	.st17{filter:url(#Adobe_OpacityMaskFilter_6_);}
	.st18{mask:url(#react-mask-423_3_);fill-rule:evenodd;clip-rule:evenodd;fill-opacity:0.16;}
	.st19{fill-rule:evenodd;clip-rule:evenodd;fill-opacity:0.7;}
	.st20{filter:url(#Adobe_OpacityMaskFilter_7_);}
	.st21{mask:url(#react-mask-495_1_);fill-rule:evenodd;clip-rule:evenodd;fill:#FFFFFF;}
	.st22{filter:url(#Adobe_OpacityMaskFilter_8_);}
	.st23{mask:url(#react-mask-495_2_);}
	.st24{fill-rule:evenodd;clip-rule:evenodd;fill:#FF4F6D;}
	.st25{fill-rule:evenodd;clip-rule:evenodd;fill-opacity:0.16;}
	.st26{fill-rule:evenodd;clip-rule:evenodd;fill-opacity:0.6;}
	.st27{filter:url(#Adobe_OpacityMaskFilter_9_);}
	.st28{mask:url(#react-mask-345_1_);}
	.st29{fill-rule:evenodd;clip-rule:evenodd;fill:#ECC797;}
	.st30{filter:url(#Adobe_OpacityMaskFilter_10_);}
	.st31{mask:url(#react-mask-346_1_);}
	.st32{fill-rule:evenodd;clip-rule:evenodd;fill:#4A312C;}
	.st33{filter:url(#react-filter-381);}
	.st34{fill:#252C2F;}
</style>
<filter  filterUnits="objectBoundingBox" height="109.8%" id="react-filter-381" width="101.5%" x="-0.8%" y="-2.4%">
	<feOffset  dx="0" dy="2" in="SourceAlpha" result="shadowOffsetOuter1"></feOffset>
	
		<feColorMatrix  in="shadowOffsetOuter1" result="shadowMatrixOuter1" type="matrix" values="0 0 0 0 0   0 0 0 0 0   0 0 0 0 0  0 0 0 0.2 0">
		</feColorMatrix>
	<feMerge>
		<feMergeNode  in="shadowMatrixOuter1"></feMergeNode>
		<feMergeNode  in="SourceGraphic"></feMergeNode>
	</feMerge>
</filter>
<desc>Created with getavataaars.com</desc>
<g>
	<g transform="translate(-825.000000, -1100.000000)">
		<g transform="translate(825.000000, 1100.000000)">
			<g id="Circle" transform="translate(12.000000, 40.000000)">
				<g id="Circle-Background">
					<circle class="st0" cx="120" cy="120" r="120"/>
				</g>
				<defs>
					<filter id="Adobe_OpacityMaskFilter" filterUnits="userSpaceOnUse" x="0" y="0" width="240" height="240">
						<feColorMatrix  type="matrix" values="1 0 0 0 0  0 1 0 0 0  0 0 1 0 0  0 0 0 1 0"/>
					</filter>
				</defs>
				<mask maskUnits="userSpaceOnUse" x="0" y="0" width="240" height="240" id="mask-2_1_">
					<g class="st1">
						<circle id="path-1_1_" class="st0" cx="120" cy="120" r="120"/>
					</g>
				</mask>
				<g class="st2">
					<rect class="st0" width="240" height="240"/>
				</g>
			</g>
			<g id="Mask">
			</g>
			<defs>
				<filter id="Adobe_OpacityMaskFilter_1_" filterUnits="userSpaceOnUse" x="0" y="18" width="322" height="280">
					<feColorMatrix  type="matrix" values="1 0 0 0 0  0 1 0 0 0  0 0 1 0 0  0 0 0 1 0"/>
				</filter>
			</defs>
			<mask maskUnits="userSpaceOnUse" x="0" y="18" width="322" height="280" id="mask-4_1_">
				<g class="st3">
					<path id="path-3_1_" class="st0" d="M12,160c0,66.3,53.7,120,120,120s120-53.7,120-120h12V0H0v160H12z"/>
				</g>
			</mask>
			<g id="Avataaar" class="st4">
				<g id="Body" transform="translate(32.000000, 36.000000)">
					<g>
						<path class="st5" d="M124,144.6V163h4l0,0c39.8,0,72,32.2,72,72v9H0v-9c0-39.8,32.2-72,72-72l0,0h4v-18.4
							c-17.2-8.2-29.6-24.9-31.7-44.7C38.5,99.1,34,94.1,34,88V74c0-5.9,4.3-10.9,10-11.8V56l0,0c0-30.9,25.1-56,56-56l0,0l0,0
							c30.9,0,56,25.1,56,56v6.2c5.7,1,10,5.9,10,11.8v14c0,6.1-4.5,11.1-10.3,11.9C153.6,119.7,141.2,136.4,124,144.6z"/>
					</g>
					<defs>
						<filter id="Adobe_OpacityMaskFilter_2_" filterUnits="userSpaceOnUse" x="-32" y="0" width="264" height="244">
							<feColorMatrix  type="matrix" values="1 0 0 0 0  0 1 0 0 0  0 0 1 0 0  0 0 0 1 0"/>
						</filter>
					</defs>
					<mask maskUnits="userSpaceOnUse" x="-32" y="0" width="264" height="244" id="mask-6_1_">
						<g class="st6">
							<path id="path-5_1_" class="st0" d="M124,144.6V163h4l0,0c39.8,0,72,32.2,72,72v9H0v-9c0-39.8,32.2-72,72-72l0,0h4v-18.4
								c-17.2-8.2-29.6-24.9-31.7-44.7C38.5,99.1,34,94.1,34,88V74c0-5.9,4.3-10.9,10-11.8V56l0,0c0-30.9,25.1-56,56-56l0,0l0,0
								c30.9,0,56,25.1,56,56v6.2c5.7,1,10,5.9,10,11.8v14c0,6.1-4.5,11.1-10.3,11.9C153.6,119.7,141.2,136.4,124,144.6z"/>
						</g>
					</mask>
					<g class="st7">
						<g id="Color" transform="translate(-32.000000, 0.000000)">
							<rect class="st8" width="264" height="244"/>
						</g>
					</g>
					<defs>
						<filter id="Adobe_OpacityMaskFilter_3_" filterUnits="userSpaceOnUse" x="44" y="79" width="112" height="79">
							<feColorMatrix  type="matrix" values="1 0 0 0 0  0 1 0 0 0  0 0 1 0 0  0 0 0 1 0"/>
						</filter>
					</defs>
					<mask maskUnits="userSpaceOnUse" x="44" y="79" width="112" height="79" id="mask-6_2_">
						<g class="st9">
							<path id="path-5_2_" class="st0" d="M124,144.6V163h4l0,0c39.8,0,72,32.2,72,72v9H0v-9c0-39.8,32.2-72,72-72l0,0h4v-18.4
								c-17.2-8.2-29.6-24.9-31.7-44.7C38.5,99.1,34,94.1,34,88V74c0-5.9,4.3-10.9,10-11.8V56l0,0c0-30.9,25.1-56,56-56l0,0l0,0
								c30.9,0,56,25.1,56,56v6.2c5.7,1,10,5.9,10,11.8v14c0,6.1-4.5,11.1-10.3,11.9C153.6,119.7,141.2,136.4,124,144.6z"/>
						</g>
					</mask>
					<path id="Neck-Shadow" class="st10" d="M156,79v23c0,30.9-25.1,56-56,56s-56-25.1-56-56V79v15c0,30.9,25.1,56,56,56
						s56-25.1,56-56V79z"/>
				</g>
				<g transform="translate(0.000000, 170.000000)">
					<g id="Hoodie">
						<path class="st11" d="M108,13.1c-17.9,2-31.7,7.5-32,21.6C50.1,45.6,32,71.2,32,101l0,0v9h200v-9c0-29.8-18.1-55.4-44-66.4
							c-0.3-14.1-14.1-19.6-32-21.6V32l0,0c0,13.3-10.7,24-24,24l0,0c-13.3,0-24-10.7-24-24V13.1z"/>
					</g>
					<defs>
						<filter id="Adobe_OpacityMaskFilter_4_" filterUnits="userSpaceOnUse" x="0" y="0" width="264" height="110">
							<feColorMatrix  type="matrix" values="1 0 0 0 0  0 1 0 0 0  0 0 1 0 0  0 0 0 1 0"/>
						</filter>
					</defs>
					<mask maskUnits="userSpaceOnUse" x="0" y="0" width="264" height="110" id="react-mask-423_1_">
						<g class="st12">
							<path id="react-path-422_1_" class="st0" d="M108,13.1c-17.9,2-31.7,7.5-32,21.6C50.1,45.6,32,71.2,32,101l0,0v9h200v-9
								c0-29.8-18.1-55.4-44-66.4c-0.3-14.1-14.1-19.6-32-21.6V32l0,0c0,13.3-10.7,24-24,24l0,0c-13.3,0-24-10.7-24-24V13.1z"/>
						</g>
					</mask>
					<g class="st13">
						<rect class="st14" width="264" height="110"/>
					</g>
					<defs>
						<filter id="Adobe_OpacityMaskFilter_5_" filterUnits="userSpaceOnUse" x="95" y="58.2" width="74" height="51.8">
							<feColorMatrix  type="matrix" values="1 0 0 0 0  0 1 0 0 0  0 0 1 0 0  0 0 0 1 0"/>
						</filter>
					</defs>
					<mask maskUnits="userSpaceOnUse" x="95" y="58.2" width="74" height="51.8" id="react-mask-423_2_">
						<g class="st15">
							<path id="react-path-422_2_" class="st0" d="M108,13.1c-17.9,2-31.7,7.5-32,21.6C50.1,45.6,32,71.2,32,101l0,0v9h200v-9
								c0-29.8-18.1-55.4-44-66.4c-0.3-14.1-14.1-19.6-32-21.6V32l0,0c0,13.3-10.7,24-24,24l0,0c-13.3,0-24-10.7-24-24V13.1z"/>
						</g>
					</mask>
					<path id="Straps" class="st16" d="M102,61.7V110h-7V58.2C97.2,59.5,99.5,60.7,102,61.7z M169,58.2v40.3c0,1.9-1.6,3.5-3.5,3.5
						s-3.5-1.6-3.5-3.5V61.7C164.5,60.7,166.8,59.5,169,58.2z"/>
					<defs>
						<filter id="Adobe_OpacityMaskFilter_6_" filterUnits="userSpaceOnUse" x="65.5" y="12.7" width="133" height="55.3">
							<feColorMatrix  type="matrix" values="1 0 0 0 0  0 1 0 0 0  0 0 1 0 0  0 0 0 1 0"/>
						</filter>
					</defs>
					<mask maskUnits="userSpaceOnUse" x="65.5" y="12.7" width="133" height="55.3" id="react-mask-423_3_">
						<g class="st17">
							<path id="react-path-422_3_" class="st0" d="M108,13.1c-17.9,2-31.7,7.5-32,21.6C50.1,45.6,32,71.2,32,101l0,0v9h200v-9
								c0-29.8-18.1-55.4-44-66.4c-0.3-14.1-14.1-19.6-32-21.6V32l0,0c0,13.3-10.7,24-24,24l0,0c-13.3,0-24-10.7-24-24V13.1z"/>
						</g>
					</mask>
					<path id="Shadow" class="st18" d="M91,12.7c-15.1,2.8-25.5,8.5-25.5,19.6C65.5,52,98.5,68,132,68s66.5-16,66.5-35.7
						c0-11.1-10.4-16.7-25.5-19.6c9.1,3.4,15,9,15,18.4c0,20.4-27.8,36.9-56,36.9S76,51.5,76,31.1C76,21.7,81.9,16.1,91,12.7z"/>
				</g>
				<g id="Face" transform="translate(76.000000, 82.000000)">
					<g transform="translate(2.000000, 52.000000)">
						<g id="Mouth">
							<path class="st19" d="M35.1,15.1C36.2,24.6,44.2,32,54,32c9.8,0,17.9-7.4,18.9-17c0.1-0.8-0.8-2-1.8-2c-14.9,0-26.3,0-34,0
								C36,13,35,14.2,35.1,15.1z"/>
						</g>
						<defs>
							<filter id="Adobe_OpacityMaskFilter_7_" filterUnits="userSpaceOnUse" x="39" y="2" width="31" height="16">
								<feColorMatrix  type="matrix" values="1 0 0 0 0  0 1 0 0 0  0 0 1 0 0  0 0 0 1 0"/>
							</filter>
						</defs>
						<mask maskUnits="userSpaceOnUse" x="39" y="2" width="31" height="16" id="react-mask-495_1_">
							<g class="st20">
								<path id="react-path-494_1_" class="st0" d="M35.1,15.1C36.2,24.6,44.2,32,54,32c9.8,0,17.9-7.4,18.9-17
									c0.1-0.8-0.8-2-1.8-2c-14.9,0-26.3,0-34,0C36,13,35,14.2,35.1,15.1z"/>
							</g>
						</mask>
						<path id="Teeth" class="st21" d="M44,2h21c2.8,0,5,2.2,5,5v6c0,2.8-2.2,5-5,5H44c-2.8,0-5-2.2-5-5V7C39,4.2,41.2,2,44,2z"/>
						<defs>
							<filter id="Adobe_OpacityMaskFilter_8_" filterUnits="userSpaceOnUse" x="38" y="24" width="32" height="22">
								<feColorMatrix  type="matrix" values="1 0 0 0 0  0 1 0 0 0  0 0 1 0 0  0 0 0 1 0"/>
							</filter>
						</defs>
						<mask maskUnits="userSpaceOnUse" x="38" y="24" width="32" height="22" id="react-mask-495_2_">
							<g class="st22">
								<path id="react-path-494_2_" class="st0" d="M35.1,15.1C36.2,24.6,44.2,32,54,32c9.8,0,17.9-7.4,18.9-17
									c0.1-0.8-0.8-2-1.8-2c-14.9,0-26.3,0-34,0C36,13,35,14.2,35.1,15.1z"/>
							</g>
						</mask>
						<g id="Tongue" class="st23">
							<g transform="translate(38.000000, 24.000000)">
								<circle class="st24" cx="11" cy="11" r="11"/>
								<circle class="st24" cx="21" cy="11" r="11"/>
							</g>
						</g>
					</g>
					<g transform="translate(28.000000, 40.000000)">
						<path id="Nose" class="st25" d="M16,8c0,4.4,5.4,8,12,8l0,0c6.6,0,12-3.6,12-8"/>
					</g>
					<g transform="translate(0.000000, 8.000000)">
						<path id="Squint" class="st26" d="M16.2,22.4C18,18.6,22.2,16,27,16c4.8,0,9,2.6,10.8,6.4c0.6,1.1-0.2,2-1,1.4
							c-2.5-2.1-5.9-3.4-9.8-3.4c-3.7,0-7.1,1.2-9.6,3.2C16.5,24.3,15.6,23.6,16.2,22.4z"/>
						<path class="st26" d="M74.2,22.4C76,18.6,80.2,16,85,16c4.8,0,9,2.6,10.8,6.4c0.6,1.1-0.2,2-1,1.4c-2.5-2.1-5.9-3.4-9.8-3.4
							c-3.7,0-7.1,1.2-9.6,3.2C74.5,24.3,73.6,23.6,74.2,22.4z"/>
					</g>
					<g>
						<path id="Eyebrow" class="st26" d="M26.5,6.1c-5.8,0.3-15.2,4.5-15,10.3c0,0.2,0.3,0.3,0.4,0.1c2.8-3,22.3-5.9,29.2-4.4
							c0.6,0.1,1.1-0.5,0.7-0.9C38.5,7.5,31.7,5.9,26.5,6.1"/>
						<path class="st26" d="M86.5,6.1c5.8,0.3,15.2,4.5,15,10.3c0,0.2-0.3,0.3-0.4,0.1c-2.8-3-22.3-5.9-29.2-4.4
							c-0.6,0.1-1.1-0.5-0.7-0.9C74.5,7.5,81.3,5.9,86.5,6.1"/>
					</g>
				</g>
				<g id="Top">
					<defs>
						<filter id="Adobe_OpacityMaskFilter_9_" filterUnits="userSpaceOnUse" x="58" y="18" width="264" height="280">
							<feColorMatrix  type="matrix" values="1 0 0 0 0  0 1 0 0 0  0 0 1 0 0  0 0 0 1 0"/>
						</filter>
					</defs>
					<mask maskUnits="userSpaceOnUse" x="58" y="18" width="264" height="280" id="react-mask-345_1_">
						<g class="st27">
							<rect id="react-path-347_1_" class="st0" width="264" height="280"/>
						</g>
					</mask>
					<g class="st28">
						<g transform="translate(-1.000000, 0.000000)">
							<g id="Hair" transform="translate(59.000000, 18.000000)">
								<g>
									<path class="st29" d="M8.5,88.7C8.2,89.7,8,90.9,8,92v13c0,6,4.4,11,10.2,11.9c1.7,20.2,14.3,37.4,31.8,45.7V181h-4l0,0
										c-15.6,0-30.1,5-41.9,13.4C1.5,186.8,0,178.6,0,170V74l0,0C0,33.1,33.1,0,74,0l0,0l0,0c40.9,0,74,33.1,74,74v96
										c0,8.6-1.5,16.8-4.1,24.4C132.1,186,117.6,181,102,181l0,0h-4v-18.4c17.5-8.3,30-25.5,31.8-45.7C135.6,116,140,111,140,105
										V92c0-1.7-0.3-3.3-1-4.8c-13-2.2-27.5-7.5-41.9-15.7c-12.1-7-22.5-15.2-30.5-23.7c3.4,7.9,7.6,14.8,12.4,20.8
										C66.4,63,57.8,54.1,53.2,41.9c-0.4,0.9-0.8,1.8-1.2,2.8C42.2,66.8,25.6,82.7,8.5,88.7z"/>
								</g>
								<defs>
									<filter id="Adobe_OpacityMaskFilter_10_" filterUnits="userSpaceOnUse" x="0" y="0" width="264" height="280">
										<feColorMatrix  type="matrix" values="1 0 0 0 0  0 1 0 0 0  0 0 1 0 0  0 0 0 1 0"/>
									</filter>
								</defs>
								<mask maskUnits="userSpaceOnUse" x="0" y="0" width="264" height="280" id="react-mask-346_1_">
									<g class="st30">
										<path id="react-path-348_1_" class="st0" d="M8.5,88.7C8.2,89.7,8,90.9,8,92v13c0,6,4.4,11,10.2,11.9
											c1.7,20.2,14.3,37.4,31.8,45.7V181h-4l0,0c-15.6,0-30.1,5-41.9,13.4C1.5,186.8,0,178.6,0,170V74l0,0C0,33.1,33.1,0,74,0
											l0,0l0,0c40.9,0,74,33.1,74,74v96c0,8.6-1.5,16.8-4.1,24.4C132.1,186,117.6,181,102,181l0,0h-4v-18.4
											c17.5-8.3,30-25.5,31.8-45.7C135.6,116,140,111,140,105V92c0-1.7-0.3-3.3-1-4.8c-13-2.2-27.5-7.5-41.9-15.7
											c-12.1-7-22.5-15.2-30.5-23.7c3.4,7.9,7.6,14.8,12.4,20.8C66.4,63,57.8,54.1,53.2,41.9c-0.4,0.9-0.8,1.8-1.2,2.8
											C42.2,66.8,25.6,82.7,8.5,88.7z"/>
									</g>
								</mask>
								<g class="st31">
									<g transform="translate(0.000000, 0.000000) ">
										<rect class="st32" width="264" height="280"/>
									</g>
								</g>
							</g>
							<path class="st25" d="M59,102.4v6.4c19.9-3.1,40.6-20.4,52-46.2c0.4-0.9,0.8-1.8,1.2-2.8c4,10.7,11.1,18.8,21.3,24.4
								c1.5,2.2,3,4.3,4.6,6.3c-12.7-5.5-21.3-14.4-25.9-26.6c-0.4,0.9-0.8,1.8-1.2,2.8c-11.5,25.7-32.1,43.1-52,46.2V102.4z
								 M207,101.1v9.1c-15-0.9-33.1-6.5-50.9-16.8c-10.3-5.9-19.3-12.7-26.6-19.9c-1.4-2.5-2.6-5.1-3.8-7.9
								c8,8.5,18.3,16.7,30.5,23.7c17.8,10.2,35.9,15.9,50.9,16.8V101.1z"/>
							<g transform="translate(62.000000, 85.000000)">
								<g id="Wayfarers" transform="translate(6.000000, 7.000000)" class="st33">
									<path id="Left_1_" class="st34" d="M34,41h-2.8C17.3,41,9,33.3,9,20.5C9,10.1,10.8,0,32.5,0h2.9C57.2,0,59,10.1,59,20.5
										C59,32.6,48.7,41,34,41z M32.4,6C13,6,13,12.8,13,21.5C13,28.6,16.1,37,31,37h3c12.4,0,21-6.4,21-15.5C55,12.8,55,6,35.6,6
										H32.4z"/>
									<path id="Right_1_" class="st34" d="M96,41h-2.8C79.3,41,71,33.3,71,20.5C71,10.1,72.8,0,94.5,0h2.9
										C119.2,0,121,10.1,121,20.5C121,32.6,110.7,41,96,41z M94.4,6C75,6,75,12.8,75,21.5C75,28.6,78.1,37,93,37h3
										c12.4,0,21-6.4,21-15.5C117,12.8,117,6,97.6,6H94.4z"/>
									<path id="Stuff_1_" class="st34" d="M3,5.8C3.6,5.1,11.2,0,32.5,0c17.9,0,21.6,1.9,27.4,4.7l0.4,0.2
										c0.4,0.1,2.4,0.8,4.8,0.9c2.2-0.1,4-0.7,4.6-0.9C76.2,1.7,82.6,0,97.5,0c21.3,0,28.9,5.1,29.5,5.8c1.6,0,3,1.3,3,2.9v2.9
										c0,1.6-1.3,2.9-3,2.9c0,0-6.9,0-6.9,2.9s-2-4.2-2-5.8V8.7c-3.6-1.4-10.1-3.9-20.7-3.9C85.7,4.8,79.8,6.9,74.7,9l0.1,0.1
										l0,2l-2.2,5.3l-2.7-1.1c-0.2-0.1-0.8-0.3-1.5-0.5c-2-0.5-4.1-0.7-6-0.3c-0.7,0.1-1.3,0.3-1.9,0.6l-2.6,1.3l-2.6-5.2
										l0.1-2.3l0.1-0.2c-4.4-2-8.4-4.1-22.8-4.1c-10.6,0-17.1,2.6-20.7,3.9v2.8c0,1.6-3,8.7-3,5.8S3,14.4,3,14.4
										c-1.6,0-3-1.3-3-2.9V8.7C0,7.1,1.3,5.8,3,5.8z"/>
								</g>
							</g>
						</g>
					</g>
				</g>
			</g>
		</g>
	</g>
</g>
</svg>
